<?xml version="1.0" encoding="UTF-8"?>
<svg version="1.1" xmlns="http://www.w3.org/2000/svg" width="147" height="147">
<path d="M0 0 C14.34185933 12.08434443 23.98764663 29.91338397 25.63818359 48.63916016 C26.81089393 69.57407438 22.2654592 88.60205309 8.3515625 104.84375 C7.70960938 105.55789062 7.06765625 106.27203125 6.40625 107.0078125 C5.88804688 107.61882812 5.36984375 108.22984375 4.8359375 108.859375 C-3.65880848 118.20786429 -15.70063275 124.30773158 -27.59375 128.0078125 C-28.36332031 128.25273437 -29.13289063 128.49765625 -29.92578125 128.75 C-49.4394852 133.73949348 -70.67795951 129.29053788 -87.74365234 119.21435547 C-92.96213226 115.81111877 -97.29983876 111.48584245 -101.59375 107.0078125 C-102.28082031 106.30527344 -102.96789062 105.60273437 -103.67578125 104.87890625 C-115.01682377 92.6483702 -120.13096954 77.42345986 -121.59375 61.0078125 C-121.70203125 59.87859375 -121.70203125 59.87859375 -121.8125 58.7265625 C-122.66422044 40.27261972 -115.25517494 21.53190998 -103.21875 7.8203125 C-101.69295113 6.20104581 -100.15212992 4.5957479 -98.59375 3.0078125 C-97.99046875 2.38003906 -97.3871875 1.75226562 -96.765625 1.10546875 C-70.1309979 -24.42903245 -27.77365386 -21.3321739 0 0 Z M-97.68359375 16.2578125 C-109.59079337 30.43180942 -112.9729748 48.03992978 -111.59375 66.0078125 C-109.43427878 82.58321321 -99.79765906 97.58006818 -86.84375 107.8203125 C-71.47553025 118.68103923 -54.56151703 122.97230231 -36.03125 120.0078125 C-22.48668063 117.50127588 -11.09007158 110.92855069 -1.59375 101.0078125 C-0.97371094 100.41871094 -0.35367188 99.82960938 0.28515625 99.22265625 C9.58491797 89.75645585 16.40625 74.25229186 16.40625 61.0078125 C-10.32375 61.0078125 -37.05375 61.0078125 -64.59375 61.0078125 C-48.59375 33.0078125 -48.59375 33.0078125 -46.59375 32.0078125 C-46.35914062 32.66136719 -46.12453125 33.31492188 -45.8828125 33.98828125 C-44.19619541 37.93905402 -42.09948525 41.59485508 -39.96875 45.3203125 C-39.54851562 46.06087891 -39.12828125 46.80144531 -38.6953125 47.56445312 C-37.66426505 49.38050261 -36.62938954 51.19437783 -35.59375 53.0078125 C-33.28375 53.0078125 -30.97375 53.0078125 -28.59375 53.0078125 C-30.10762873 48.90015488 -32.10182459 45.1723432 -34.2890625 41.39453125 C-34.64136932 40.78011673 -34.99367615 40.16570221 -35.35665894 39.53266907 C-36.4743147 37.58511741 -37.59645362 35.64019291 -38.71875 33.6953125 C-39.48076711 32.36931204 -40.242489 31.04314188 -41.00390625 29.71679688 C-42.86377521 26.4784979 -44.7276718 23.24253827 -46.59375 20.0078125 C-47.25375 20.0078125 -47.91375 20.0078125 -48.59375 20.0078125 C-48.96959229 20.65927246 -49.34543457 21.31073242 -49.73266602 21.98193359 C-50.26561279 22.90570801 -50.79855957 23.82948242 -51.34765625 24.78125 C-51.94755371 25.82112061 -52.54745117 26.86099121 -53.16552734 27.93237305 C-54.5081323 30.25945618 -55.85088074 32.58645587 -57.19384766 34.91333008 C-60.67106577 40.93858348 -64.14555265 46.96537283 -67.61328125 52.99609375 C-68.25587891 54.11234131 -68.89847656 55.22858887 -69.56054688 56.37866211 C-70.82563201 58.57750827 -72.08867711 60.7775295 -73.34960938 62.97875977 C-76.02627964 67.63609446 -78.7204241 72.26503561 -81.60546875 76.796875 C-82.0432666 77.49079346 -82.48106445 78.18471191 -82.93212891 78.8996582 C-84.054625 80.66086218 -85.20004458 82.40740123 -86.34765625 84.15234375 C-87.92945148 86.96374322 -87.92945148 86.96374322 -86.80859375 89.89453125 C-86.40769531 90.59191406 -86.00679687 91.28929688 -85.59375 92.0078125 C-84.60375 92.0078125 -83.61375 92.0078125 -82.59375 92.0078125 C-81.53849598 89.70174118 -81.53849598 89.70174118 -80.71484375 86.7578125 C-75.13358105 71.86559669 -75.13358105 71.86559669 -68.59375 68.0078125 C-55.59587709 64.03830718 -39.88194932 66.61488205 -26.59375 68.0078125 C-26.31176758 68.51642822 -26.02978516 69.02504395 -25.73925781 69.54907227 C-24.44121821 71.88974278 -23.14248841 74.23002966 -21.84375 76.5703125 C-21.4003125 77.37017578 -20.956875 78.17003906 -20.5 78.99414062 C-17.89652511 83.68422407 -15.26590909 88.35650755 -12.59375 93.0078125 C-10.94375 91.3578125 -9.29375 89.7078125 -7.59375 88.0078125 C-11.55375 81.0778125 -15.51375 74.1478125 -19.59375 67.0078125 C-10.02375 67.0078125 -0.45375 67.0078125 9.40625 67.0078125 C3.04183929 85.16966745 -4.20657529 98.52389902 -21.59375 108.0078125 C-35.95096328 114.79639205 -51.87424405 115.48725155 -66.98828125 111 C-81.07032192 105.54072364 -92.97979057 95.68712919 -99.59375 82.0078125 C-105.92356431 65.80915033 -106.7764477 49.77740377 -100.1875 33.54296875 C-93.2661604 18.50864382 -83.01378772 9.12929357 -67.875 2.88671875 C-65.78622296 2.15912808 -63.74320568 1.52487838 -61.59375 1.0078125 C-60.86414062 0.82605469 -60.13453125 0.64429688 -59.3828125 0.45703125 C-41.68040703 -2.39419652 -25.77485946 1.53234477 -11.08984375 11.75 C1.76507872 22.1680763 7.25658466 37.25948581 10.40625 53.0078125 C12.38625 53.0078125 14.36625 53.0078125 16.40625 53.0078125 C14.41308822 34.83136706 7.57872467 18.96159305 -6.59375 7.0078125 C-36.62394522 -15.09155965 -72.63139761 -10.71427157 -97.68359375 16.2578125 Z " fill="#168DCA" transform="translate(121.59375,16.9921875)"/>
</svg>
